<svg height="702.051" viewBox="0 0 648.338 526.539" width="864.451" xmlns="http://www.w3.org/2000/svg" xmlns:xlink="http://www.w3.org/1999/xlink"><defs><style>*{stroke-linecap:butt;stroke-linejoin:round}</style></defs><g id="figure_1"><path d="M0 526.539h648.338V0H0z" fill="#fff" id="patch_1"/><g id="axes_1"><path d="M34.538 495.428h613.8V51.908h-613.8z" fill="#eaeaf2" id="patch_2"/><g id="matplotlib.axis_1"><g id="xtick_1"><g id="text_1"><defs><path d="M54.688 71.578h9.468v-41.36q0-10.78-2.437-17.14Q59.28 6.734 52.906 2.75q-6.375-3.969-16.718-3.969-10.063 0-16.47 3.469-6.39 3.469-9.124 10.031-2.735 6.563-2.735 17.938v41.36h9.47V30.28q0-9.328 1.733-13.75 1.735-4.422 5.954-6.812 4.234-2.39 10.343-2.39 10.438 0 14.875 4.734 4.453 4.734 4.453 18.218z" id="ArialMT-55"/><path d="M6.594 0v51.86H14.5v-7.376q5.719 8.547 16.5 8.547 4.688 0 8.625-1.687 3.938-1.688 5.89-4.422 1.954-2.734 2.735-6.484.484-2.454.484-8.547V0h-8.797v31.547q0 5.375-1.03 8.031-1.016 2.656-3.626 4.234-2.61 1.594-6.125 1.594-5.625 0-9.703-3.562-4.078-3.563-4.078-13.516V0z" id="ArialMT-6e"/><path d="M40.438 6.39Q35.547 2.25 31.03.532q-4.515-1.703-9.687-1.703-8.547 0-13.14 4.172-4.595 4.172-4.595 10.672 0 3.812 1.735 6.953 1.734 3.156 4.547 5.063 2.812 1.906 6.328 2.875 2.578.687 7.812 1.328 10.64 1.265 15.672 3.015.047 1.813.047 2.297 0 5.375-2.5 7.578-3.36 2.969-10 2.969-6.203 0-9.156-2.172-2.953-2.172-4.375-7.687l-8.594 1.172q1.172 5.515 3.86 8.906 2.687 3.39 7.765 5.218 5.078 1.844 11.766 1.844 6.64 0 10.78-1.562 4.157-1.563 6.11-3.938 1.953-2.36 2.735-5.984.437-2.234.437-8.094V21.734q0-12.265.563-15.515.562-3.235 2.234-6.219h-9.188q-1.359 2.734-1.75 6.39zm-.735 19.641q-4.797-1.953-14.36-3.328-5.421-.781-7.671-1.765-2.235-.97-3.469-2.844-1.219-1.875-1.219-4.172 0-3.516 2.657-5.86 2.671-2.343 7.796-2.343 5.079 0 9.032 2.218 3.953 2.22 5.812 6.079 1.422 2.984 1.422 8.78z" id="ArialMT-61"/><path d="M3.078 15.484l8.688 1.36q.734-5.219 4.078-8 3.344-2.781 9.36-2.781 6.046 0 8.968 2.453 2.937 2.468 2.937 5.796 0 2.97-2.593 4.688-1.797 1.172-8.985 2.969-9.656 2.453-13.39 4.234-3.735 1.781-5.672 4.922-1.922 3.156-1.922 6.969 0 3.453 1.578 6.406 1.594 2.969 4.328 4.922 2.047 1.5 5.578 2.547 3.547 1.062 7.61 1.062 6.093 0 10.703-1.765 4.625-1.75 6.812-4.766 2.203-3 3.032-8.016l-8.594-1.172q-.578 4-3.39 6.235-2.813 2.25-7.938 2.25-6.047 0-8.641-2-2.594-2-2.594-4.688 0-1.703 1.078-3.078 1.079-1.406 3.375-2.343 1.313-.485 7.766-2.235 9.328-2.5 13-4.094 3.688-1.578 5.781-4.609 2.11-3.016 2.11-7.516 0-4.39-2.563-8.28-2.562-3.876-7.406-6-4.828-2.126-10.922-2.126-10.11 0-15.406 4.203-5.297 4.203-6.766 12.453z" id="ArialMT-73"/><path d="M6.64 61.469v10.11h8.797v-10.11zM6.64 0v51.86h8.797V0z" id="ArialMT-69"/><path d="M25.781 7.86L27.047.093q-3.703-.781-6.64-.781-4.782 0-7.423 1.515-2.625 1.516-3.703 3.985Q8.203 7.28 8.203 15.188v29.828H1.766v6.843h6.437v12.844l8.735 5.266v-18.11h8.843v-6.843h-8.843V14.703q0-3.765.468-4.844.469-1.062 1.516-1.703 1.047-.64 3-.64 1.469 0 3.86.343z" id="ArialMT-74"/><path d="M42.094 16.703l9.078-1.125q-2.14-7.953-7.953-12.36-5.813-4.39-14.844-4.39-11.375 0-18.047 7-6.672 7.016-6.672 19.656 0 13.094 6.735 20.313 6.75 7.234 17.484 7.234 10.406 0 17-7.078 6.594-7.078 6.594-19.922 0-.781-.047-2.343H12.75q.484-8.547 4.828-13.094 4.344-4.531 10.844-4.531 4.828 0 8.25 2.53 3.422 2.548 5.422 8.11zm-28.86 14.203h28.953q-.578 6.547-3.312 9.813-4.203 5.078-10.89 5.078-6.063 0-10.188-4.047-4.125-4.047-4.563-10.844z" id="ArialMT-65"/><path d="M40.234 0v6.547q-4.937-7.719-14.5-7.719-6.203 0-11.406 3.422t-8.062 9.547q-2.844 6.125-2.844 14.078 0 7.766 2.578 14.094 2.594 6.328 7.766 9.687 5.187 3.375 11.578 3.375 4.687 0 8.343-1.984 3.672-1.969 5.97-5.14v25.671h8.734V0zm-27.78 25.875q0-9.953 4.187-14.89 4.203-4.922 9.922-4.922 5.765 0 9.78 4.703 4.032 4.718 4.032 14.375 0 10.656-4.11 15.625-4.093 4.984-10.093 4.984-5.86 0-9.797-4.781-3.922-4.782-3.922-15.094z" id="ArialMT-64"/></defs><g transform="matrix(.14 0 0 -.14 153.362 508.948)" fill="#262626"><use xlink:href="#ArialMT-55"/><use x="72.217" xlink:href="#ArialMT-6e"/><use x="127.832" xlink:href="#ArialMT-61"/><use x="183.447" xlink:href="#ArialMT-73"/><use x="233.447" xlink:href="#ArialMT-73"/><use x="283.447" xlink:href="#ArialMT-69"/><use x="305.664" xlink:href="#ArialMT-73"/><use x="355.664" xlink:href="#ArialMT-74"/><use x="383.447" xlink:href="#ArialMT-65"/><use x="439.063" xlink:href="#ArialMT-64"/></g><defs><path d="M6.5 0v51.86h7.906V44q3.031 5.516 5.594 7.266 2.563 1.765 5.64 1.765 4.438 0 9.032-2.828l-3.031-8.156q-3.22 1.906-6.438 1.906-2.89 0-5.187-1.734-2.297-1.735-3.266-4.813-1.469-4.687-1.469-10.25V0z" id="ArialMT-72"/></defs><g transform="matrix(.14 0 0 -.14 172.035 523.756)" fill="#262626"><use xlink:href="#ArialMT-20"/><use x="27.783" xlink:href="#ArialMT-72"/><use x="61.084" xlink:href="#ArialMT-65"/><use x="116.699" xlink:href="#ArialMT-61"/><use x="172.314" xlink:href="#ArialMT-64"/></g></g></g><g id="xtick_2"><g id="text_2"><defs><path d="M-.14 0l27.484 71.578h10.203L66.844 0H56.063l-8.36 21.688H17.781L9.906 0zm20.656 29.39H44.78L37.313 49.22q-3.422 9.031-5.079 14.843-1.375-6.89-3.859-13.671z" id="ArialMT-41"/><path d="M9.328 0v71.578h9.469V0z" id="ArialMT-49"/><path d="M3.172 21.484v8.844h27v-8.844z" id="ArialMT-2d"/></defs><g transform="matrix(.14 0 0 -.14 460.265 508.948)" fill="#262626"><use xlink:href="#ArialMT-41"/><use x="66.699" xlink:href="#ArialMT-49"/><use x="94.482" xlink:href="#ArialMT-2d"/><use x="127.783" xlink:href="#ArialMT-61"/><use x="183.398" xlink:href="#ArialMT-73"/><use x="233.398" xlink:href="#ArialMT-73"/><use x="283.398" xlink:href="#ArialMT-69"/><use x="305.615" xlink:href="#ArialMT-73"/><use x="355.615" xlink:href="#ArialMT-74"/><use x="383.398" xlink:href="#ArialMT-65"/><use x="439.014" xlink:href="#ArialMT-64"/></g><g transform="matrix(.14 0 0 -.14 480.88 523.756)" fill="#262626"><use xlink:href="#ArialMT-72"/><use x="33.301" xlink:href="#ArialMT-65"/><use x="88.916" xlink:href="#ArialMT-61"/><use x="144.531" xlink:href="#ArialMT-64"/></g></g></g></g><g id="matplotlib.axis_2"><g id="ytick_1"><g id="text_3"><defs><path d="M4.156 35.297q0 12.703 2.61 20.437 2.609 7.75 7.75 11.938 5.156 4.203 12.968 4.203 5.766 0 10.11-2.328 4.343-2.313 7.172-6.688 2.843-4.359 4.453-10.64 1.61-6.266 1.61-16.922 0-12.594-2.595-20.328Q45.656 7.234 40.5 3q-5.14-4.219-13.016-4.219-10.343 0-16.25 7.422-7.078 8.938-7.078 29.094zm9.032 0q0-17.625 4.124-23.469Q21.438 6 27.485 6q6.063 0 10.188 5.86 4.125 5.859 4.125 23.437 0 17.687-4.125 23.484-4.125 5.813-10.281 5.813-6.047 0-9.672-5.125-4.532-6.532-4.532-24.172z" id="ArialMT-30"/><path d="M9.078 0v10.016h10.016V0z" id="ArialMT-2e"/><path d="M32.328 0v17.14H1.266v8.063l32.672 46.375h7.171V25.203h9.672v-8.062H41.11V0zm0 25.203V57.47L9.906 25.203z" id="ArialMT-34"/></defs><g transform="matrix(.1 0 0 -.1 17.138 499.006)" fill="#262626"><use xlink:href="#ArialMT-30"/><use x="55.615" xlink:href="#ArialMT-2e"/><use x="83.398" xlink:href="#ArialMT-34"/></g></g></g><g id="ytick_2"><g id="text_4"><defs><path d="M4.156 18.75l9.219.781q1.031-6.734 4.766-10.14Q21.875 6 27.156 6q6.344 0 10.735 4.781 4.39 4.797 4.39 12.703 0 7.516-4.218 11.86-4.22 4.36-11.063 4.36-4.25 0-7.672-1.938-3.406-1.922-5.36-5l-8.25 1.078 6.923 36.765H48.25v-8.406H19.672L15.828 42.97q6.438 4.5 13.516 4.5 9.375 0 15.812-6.5 6.453-6.5 6.453-16.703 0-9.72-5.656-16.797-6.89-8.688-18.797-8.688-9.765 0-15.953 5.469-6.172 5.469-7.047 14.5z" id="ArialMT-35"/></defs><g transform="matrix(.1 0 0 -.1 17.138 425.086)" fill="#262626"><use xlink:href="#ArialMT-30"/><use x="55.615" xlink:href="#ArialMT-2e"/><use x="83.398" xlink:href="#ArialMT-35"/></g></g></g><g id="ytick_3"><g id="text_5"><defs><path d="M49.75 54.047l-8.734-.672q-1.172 5.172-3.313 7.516-3.578 3.765-8.797 3.765-4.203 0-7.375-2.344-4.14-3.03-6.547-8.843-2.39-5.813-2.484-16.547 3.172 4.828 7.766 7.172 4.593 2.343 9.625 2.343 8.78 0 14.953-6.468Q51.03 33.5 51.03 23.25q0-6.75-2.906-12.531-2.906-5.781-7.984-8.86-5.078-3.078-11.532-3.078-10.984 0-17.922 8.078Q3.766 14.938 3.766 33.5q0 20.75 7.656 30.172 6.687 8.203 18.015 8.203 8.454 0 13.844-4.734 5.407-4.735 6.469-13.094zm-35.875-30.86q0-4.53 1.922-8.687 1.922-4.14 5.39-6.328Q24.657 6 28.47 6q5.562 0 9.562 4.484 4.016 4.5 4.016 12.22 0 7.421-3.969 11.687-3.953 4.28-9.953 4.28-5.953 0-10.11-4.28-4.14-4.266-4.14-11.203z" id="ArialMT-36"/></defs><g transform="matrix(.1 0 0 -.1 17.138 351.166)" fill="#262626"><use xlink:href="#ArialMT-30"/><use x="55.615" xlink:href="#ArialMT-2e"/><use x="83.398" xlink:href="#ArialMT-36"/></g></g></g><g id="ytick_4"><g id="text_6"><defs><path d="M4.734 62.203v8.453h46.344v-6.844q-6.844-7.265-13.562-19.328-6.703-12.062-10.36-24.812Q24.516 10.687 23.781 0H14.75q.14 8.453 3.313 20.406 3.171 11.969 9.109 23.078 5.937 11.11 12.625 18.72z" id="ArialMT-37"/></defs><g transform="matrix(.1 0 0 -.1 17.138 277.246)" fill="#262626"><use xlink:href="#ArialMT-30"/><use x="55.615" xlink:href="#ArialMT-2e"/><use x="83.398" xlink:href="#ArialMT-37"/></g></g></g><g id="ytick_5"><g id="text_7"><defs><path d="M17.672 38.813q-5.469 2.015-8.11 5.718-2.624 3.719-2.624 8.89 0 7.813 5.609 13.126 5.625 5.328 14.937 5.328 9.375 0 15.094-5.453 5.719-5.438 5.719-13.25 0-4.984-2.625-8.672-2.61-3.672-7.922-5.688 6.594-2.14 10.031-6.937 3.438-4.781 3.438-11.422 0-9.172-6.5-15.422-6.485-6.25-17.078-6.25-10.594 0-17.094 6.266-6.5 6.281-6.5 15.656 0 6.985 3.547 11.688 3.547 4.718 10.078 6.422zm-1.75 14.906q0-5.078 3.265-8.313 3.282-3.218 8.5-3.218 5.079 0 8.329 3.187 3.25 3.203 3.25 7.844 0 4.843-3.36 8.14-3.343 3.297-8.312 3.297-5.032 0-8.36-3.234-3.312-3.219-3.312-7.703zm-2.828-33.063q0-3.765 1.781-7.281 1.781-3.516 5.297-5.453Q23.687 6 27.734 6q6.297 0 10.391 4.047 4.11 4.062 4.11 10.312 0 6.344-4.22 10.5-4.218 4.157-10.578 4.157-6.203 0-10.28-4.11-4.063-4.093-4.063-10.25z" id="ArialMT-38"/></defs><g transform="matrix(.1 0 0 -.1 17.138 203.326)" fill="#262626"><use xlink:href="#ArialMT-30"/><use x="55.615" xlink:href="#ArialMT-2e"/><use x="83.398" xlink:href="#ArialMT-38"/></g></g></g><g id="ytick_6"><g id="text_8"><defs><path d="M5.469 16.547l8.453.781q1.062-5.953 4.094-8.64Q21.046 6 25.78 6q4.047 0 7.094 1.86 3.063 1.859 5.016 4.952 1.953 3.11 3.265 8.376 1.328 5.28 1.328 10.75 0 .578-.047 1.75-2.64-4.188-7.203-6.813-4.562-2.61-9.89-2.61-8.89 0-15.047 6.438-6.14 6.453-6.14 17 0 10.89 6.421 17.531Q17 71.875 26.656 71.875q6.985 0 12.766-3.766 5.797-3.75 8.797-10.718 3-6.953 3-20.141 0-13.719-2.985-21.844-2.968-8.125-8.859-12.375-5.875-4.25-13.781-4.25-8.407 0-13.735 4.657-5.312 4.671-6.39 13.109zM41.453 48.14q0 7.578-4.031 12.015-4.016 4.438-9.688 4.438-5.859 0-10.203-4.781-4.343-4.782-4.343-12.407 0-6.828 4.124-11.11 4.125-4.265 10.172-4.265 6.11 0 10.032 4.266 3.937 4.281 3.937 11.844z" id="ArialMT-39"/></defs><g transform="matrix(.1 0 0 -.1 17.138 129.406)" fill="#262626"><use xlink:href="#ArialMT-30"/><use x="55.615" xlink:href="#ArialMT-2e"/><use x="83.398" xlink:href="#ArialMT-39"/></g></g></g><g id="ytick_7"><g id="text_9"><defs><path d="M37.25 0h-8.781v56q-3.172-3.016-8.328-6.047-5.157-3.031-9.25-4.547v8.5q7.375 3.469 12.89 8.39 5.516 4.938 7.813 9.579h5.656z" id="ArialMT-31"/></defs><g transform="matrix(.1 0 0 -.1 17.138 55.486)" fill="#262626"><use xlink:href="#ArialMT-31"/><use x="55.615" xlink:href="#ArialMT-2e"/><use x="83.398" xlink:href="#ArialMT-30"/></g></g></g><g id="text_10"><defs><path d="M4.984-4.297l8.547-1.266q.531-3.953 2.969-5.765 3.281-2.438 8.938-2.438 6.109 0 9.421 2.438 3.328 2.437 4.5 6.828.688 2.688.625 11.281Q34.234 0 25.641 0 14.938 0 9.078 7.719q-5.86 7.718-5.86 18.5 0 7.422 2.688 13.687 2.688 6.282 7.782 9.703 5.109 3.422 12 3.422 9.171 0 15.14-7.422v6.25h8.094V7.031q0-12.11-2.469-17.156-2.453-5.063-7.812-7.984-5.344-2.938-13.157-2.938-9.265 0-14.984 4.172-5.719 4.172-5.516 12.578zM12.25 26.86q0-10.203 4.047-14.89Q20.359 7.28 26.469 7.28q6.047 0 10.14 4.657 4.11 4.671 4.11 14.624 0 9.516-4.219 14.344-4.219 4.844-10.188 4.844-5.859 0-9.968-4.766-4.094-4.75-4.094-14.125z" id="ArialMT-67"/><path d="M6.594 0v51.86h7.86v-7.282q2.437 3.813 6.483 6.125 4.063 2.328 9.235 2.328 5.765 0 9.453-2.39 3.688-2.391 5.203-6.688 6.156 9.078 16.016 9.078 7.718 0 11.86-4.281 4.155-4.266 4.155-13.156V0h-8.75v32.672q0 5.266-.859 7.578-.844 2.328-3.094 3.734-2.234 1.422-5.265 1.422-5.47 0-9.094-3.64-3.61-3.625-3.61-11.641V0h-8.78v33.688q0 5.859-2.157 8.78-2.14 2.938-7.031 2.938-3.703 0-6.86-1.953-3.14-1.953-4.562-5.719-1.422-3.75-1.422-10.828V0z" id="ArialMT-6d"/><path d="M23.39-21.047Q16.11-11.859 11.079.438 6.063 12.75 6.063 25.922q0 11.625 3.75 22.265 4.39 12.36 13.578 24.61h6.297q-5.907-10.156-7.813-14.5-2.984-6.734-4.688-14.063-2.093-9.125-2.093-18.359 0-23.484 14.594-46.922z" id="ArialMT-28"/><path d="M39.656-19.875v25.39q-2.062-2.874-5.75-4.78-3.687-1.907-7.828-1.907-9.234 0-15.906 7.375-6.656 7.375-6.656 20.219 0 7.812 2.703 14 2.718 6.203 7.86 9.406 5.155 3.203 11.312 3.203 9.625 0 15.14-8.11v6.938h7.907v-71.734zm-27.11 45.953q0-10.015 4.204-15.015 4.203-5 10.063-5 5.609 0 9.656 4.75 4.062 4.765 4.062 14.484 0 10.344-4.281 15.562-4.266 5.235-10.031 5.235-5.703 0-9.688-4.86-3.984-4.859-3.984-15.156z" id="ArialMT-71"/><path d="M40.578 0v7.625q-6.062-8.797-16.453-8.797-4.594 0-8.578 1.75Q11.578 2.344 9.64 5q-1.922 2.672-2.704 6.531-.546 2.578-.546 8.203V51.86h8.796V23.094q0-6.875.532-9.282.828-3.453 3.515-5.437 2.688-1.984 6.641-1.984t7.422 2.03q3.469 2.032 4.906 5.517 1.453 3.5 1.453 10.14V51.86h8.782V0z" id="ArialMT-75"/><path d="M40.438 19l8.64-1.125q-1.422-8.938-7.266-14-5.828-5.047-14.328-5.047-10.64 0-17.109 6.953-6.469 6.969-6.469 19.953 0 8.391 2.781 14.688 2.782 6.312 8.47 9.453 5.687 3.156 12.39 3.156 8.437 0 13.812-4.281 5.375-4.266 6.891-12.125l-8.547-1.328q-1.219 5.234-4.328 7.86-3.094 2.64-7.5 2.64-6.64 0-10.797-4.766-4.14-4.75-4.14-15.047 0-10.453 4-15.187 4.015-4.735 10.453-4.735 5.172 0 8.64 3.172Q39.5 12.406 40.438 19z" id="ArialMT-63"/><path d="M58.797 25.094l9.469-2.39Q65.28 11.03 57.546 4.905q-7.733-6.125-18.921-6.125-11.578 0-18.828 4.703-7.25 4.72-11.031 13.657-3.782 8.937-3.782 19.187 0 11.188 4.266 19.5 4.281 8.328 12.156 12.64 7.89 4.329 17.36 4.329 10.75 0 18.062-5.469 7.328-5.469 10.219-15.375l-9.328-2.203q-2.5 7.813-7.235 11.375-4.734 3.578-11.906 3.578-8.25 0-13.797-3.969-5.547-3.953-7.797-10.625-2.234-6.656-2.234-13.734 0-9.125 2.656-15.938 2.657-6.812 8.266-10.187 5.625-3.36 12.172-3.36 7.953 0 13.468 4.579 5.532 4.594 7.485 13.625z" id="ArialMT-43"/><path d="M3.328 25.922q0 14.406 8 21.344 6.688 5.765 16.313 5.765 10.687 0 17.468-7.015 6.797-7 6.797-19.36 0-10-3-15.75-3-5.734-8.75-8.906-5.734-3.172-12.515-3.172-10.891 0-17.61 6.984-6.703 6.985-6.703 20.11zm9.031 0q0-9.953 4.344-14.906 4.344-4.954 10.938-4.954 6.547 0 10.89 4.97 4.344 4.984 4.344 15.187 0 9.625-4.375 14.578-4.375 4.953-10.86 4.953-6.593 0-10.937-4.938-4.344-4.921-4.344-14.89z" id="ArialMT-6f"/><path d="M6.594 0v71.578h8.781V45.906q6.156 7.125 15.531 7.125 5.766 0 10.016-2.281 4.25-2.266 6.078-6.266 1.828-4 1.828-11.625V0h-8.781v32.86q0 6.593-2.86 9.593-2.859 3-8.078 3-3.906 0-7.359-2.031-3.438-2.016-4.906-5.484-1.469-3.47-1.469-9.563V0z" id="ArialMT-68"/><path d="M6.64 46.234L4.39 59.625v11.953h10.016V59.625l-2.344-13.39z" id="ArialMT-27"/><path d="M6.64 0v71.578h8.797V30.766l20.797 21.093H47.61L27.781 32.625 49.61 0H38.766L21.625 26.516l-6.188-5.953V0z" id="ArialMT-6b"/><path d="M6.594-19.875v71.734h8v-6.734q2.844 3.953 6.406 5.922 3.563 1.984 8.64 1.984 6.641 0 11.72-3.422 5.078-3.422 7.656-9.656 2.593-6.219 2.593-13.64 0-7.954-2.859-14.329-2.844-6.375-8.297-9.765Q35.016-1.171 29-1.171q-4.39 0-7.89 1.859-3.485 1.859-5.735 4.687v-25.25zm7.953 45.516q0-10.016 4.047-14.797 4.062-4.781 9.828-4.781 5.86 0 10.031 4.953 4.172 4.953 4.172 15.359 0 9.906-4.078 14.828-4.078 4.938-9.734 4.938-5.625 0-9.954-5.25-4.312-5.25-4.312-15.25z" id="ArialMT-70"/><path d="M12.36-21.047H6.062Q20.655 2.391 20.655 25.875q0 9.188-2.093 18.219-1.672 7.328-4.641 14.062-1.906 4.39-7.86 14.64h6.297q9.172-12.25 13.563-24.609 3.765-10.64 3.765-22.265 0-13.172-5.062-25.485-5.047-12.296-12.266-21.484z" id="ArialMT-29"/></defs><g transform="matrix(0 -.14 -.14 0 10.192 391.73)" fill="#262626"><use xlink:href="#ArialMT-41"/><use x="66.699" xlink:href="#ArialMT-67"/><use x="122.314" xlink:href="#ArialMT-72"/><use x="155.615" xlink:href="#ArialMT-65"/><use x="211.23" xlink:href="#ArialMT-65"/><use x="266.846" xlink:href="#ArialMT-6d"/><use x="350.146" xlink:href="#ArialMT-65"/><use x="405.762" xlink:href="#ArialMT-6e"/><use x="461.377" xlink:href="#ArialMT-74"/><use x="489.16" xlink:href="#ArialMT-20"/><use x="516.943" xlink:href="#ArialMT-28"/><use x="550.244" xlink:href="#ArialMT-71"/><use x="605.859" xlink:href="#ArialMT-75"/><use x="661.475" xlink:href="#ArialMT-61"/><use x="717.09" xlink:href="#ArialMT-64"/><use x="772.705" xlink:href="#ArialMT-72"/><use x="806.006" xlink:href="#ArialMT-61"/><use x="861.621" xlink:href="#ArialMT-74"/><use x="889.404" xlink:href="#ArialMT-69"/><use x="911.621" xlink:href="#ArialMT-63"/><use x="961.621" xlink:href="#ArialMT-20"/><use x="989.404" xlink:href="#ArialMT-43"/><use x="1061.621" xlink:href="#ArialMT-6f"/><use x="1117.236" xlink:href="#ArialMT-68"/><use x="1172.852" xlink:href="#ArialMT-65"/><use x="1228.467" xlink:href="#ArialMT-6e"/><use x="1284.082" xlink:href="#ArialMT-27"/><use x="1303.174" xlink:href="#ArialMT-73"/><use x="1353.174" xlink:href="#ArialMT-20"/><use x="1380.957" xlink:href="#ArialMT-6b"/><use x="1430.957" xlink:href="#ArialMT-61"/><use x="1486.572" xlink:href="#ArialMT-70"/><use x="1542.188" xlink:href="#ArialMT-70"/><use x="1597.803" xlink:href="#ArialMT-61"/><use x="1653.418" xlink:href="#ArialMT-29"/></g></g></g><path clip-path="url(#pe76f1316ca)" d="M-1 146.209h650.338" fill="none" stroke="#465a75" stroke-linecap="round" stroke-width="2" id="line2d_10"/><path clip-path="url(#pe76f1316ca)" d="M-1 159.513h650.338" fill="none" stroke="orange" stroke-dasharray="7.4,3.2" stroke-width="2" id="line2d_11"/><path clip-path="url(#pe76f1316ca)" d="M187.988 245.407v42.03" fill="none" stroke="#000" stroke-linecap="round" id="line2d_12"/><path clip-path="url(#pe76f1316ca)" d="M187.988 162.12v-35.1" fill="none" stroke="#000" stroke-linecap="round" id="line2d_13"/><path clip-path="url(#pe76f1316ca)" d="M176.48 287.437h23.017" fill="none" stroke="#000" stroke-linecap="round" id="line2d_14"/><path clip-path="url(#pe76f1316ca)" d="M176.48 127.02h23.017" fill="none" stroke="#000" stroke-linecap="round" id="line2d_15"/><g id="line2d_16"><defs><path d="M0 3a3 3 0 100-6 3 3 0 000 6z" id="md2480a2b22" stroke="#000"/></defs><g clip-path="url(#pe76f1316ca)"><use x="187.988" xlink:href="#md2480a2b22" y="441.79" fill-opacity="0" stroke="#000"/></g></g><path clip-path="url(#pe76f1316ca)" d="M494.888 188.894v34.454" fill="none" stroke="#000" stroke-linecap="round" id="line2d_17"/><path clip-path="url(#pe76f1316ca)" d="M494.888 135.206v-17.257" fill="none" stroke="#000" stroke-linecap="round" id="line2d_18"/><path clip-path="url(#pe76f1316ca)" d="M483.38 223.348h23.017" fill="none" stroke="#000" stroke-linecap="round" id="line2d_19"/><path clip-path="url(#pe76f1316ca)" d="M483.38 117.949h23.017" fill="none" stroke="#000" stroke-linecap="round" id="line2d_20"/><path clip-path="url(#pe76f1316ca)" d="M187.988 96.26v-7.392h306.9v7.392" fill="none" stroke="#000" stroke-linecap="round" stroke-width="1.5" id="line2d_22"/><path clip-path="url(#pe76f1316ca)" d="M164.97 245.407h46.036v-83.286H164.97v83.286z" fill="#97b2cc" stroke="#465a75" stroke-width="2" id="patch_3"/><path clip-path="url(#pe76f1316ca)" d="M471.87 188.894h46.036v-53.688H471.87v53.688z" fill="#97b2cc" stroke="#465a75" stroke-width="2" id="patch_4"/><path clip-path="url(#pe76f1316ca)" d="M164.97 200.681h46.036" fill="none" stroke="#465a75" stroke-linecap="round" id="line2d_23"/><path clip-path="url(#pe76f1316ca)" d="M471.87 146.209h46.036" fill="none" stroke="#465a75" stroke-linecap="round" id="line2d_24"/><path d="M34.538 495.428V51.908" fill="none" id="patch_5"/><path d="M648.338 495.428V51.908" fill="none" id="patch_6"/><path d="M34.538 495.428h613.8" fill="none" id="patch_7"/><path d="M34.538 51.907h613.8" fill="none" id="patch_8"/><g id="text_11"><defs><path d="M52.828 42.094H5.562v8.203h47.266zm0-21.735H5.562v8.203h47.266z" id="ArialMT-3d"/><path d="M50.344 8.453V0H3.03q-.094 3.172 1.016 6.11 1.812 4.827 5.781 9.515 3.985 4.688 11.516 10.844 11.672 9.562 15.765 15.156 4.11 5.594 4.11 10.578 0 5.219-3.75 8.797-3.735 3.594-9.735 3.594-6.343 0-10.156-3.813-3.812-3.797-3.86-10.531l-9.03.922q.921 10.11 6.968 15.406 6.063 5.297 16.282 5.297 10.296 0 16.296-5.719Q50.25 60.453 50.25 52q0-4.297-1.766-8.453-1.75-4.14-5.828-8.734T29.11 22.218q-7.922-6.64-10.172-9.016-2.234-2.36-3.703-4.75z" id="ArialMT-32"/></defs><g transform="matrix(.13 0 0 -.13 295.403 81.475)" fill="#262626"><use xlink:href="#ArialMT-70"/><use x="55.615" xlink:href="#ArialMT-3d"/><use x="114.014" xlink:href="#ArialMT-30"/><use x="169.629" xlink:href="#ArialMT-2e"/><use x="197.412" xlink:href="#ArialMT-30"/><use x="253.027" xlink:href="#ArialMT-32"/></g></g><path d="M288.348 309.304q-4.516-71.073-52.994-126.117m7.42-9.732l1.585 1.801-18.01 15.863-1.587-1.802" fill="none" stroke="#000" stroke-linecap="round" id="patch_9"/><g id="text_12"><defs><path d="M8.89 0v10.016h10V0q0-5.516-1.953-8.906-1.953-3.406-6.187-5.25l-2.453 3.75q2.781 1.219 4.094 3.594Q13.719-4.438 13.875 0z" id="ArialMT-2c"/></defs><g transform="matrix(.12 0 0 -.12 218.678 321.887)" fill="#465a75"><use xlink:href="#ArialMT-49"/><use x="27.783" xlink:href="#ArialMT-6e"/><use x="83.398" xlink:href="#ArialMT-20"/><use x="111.182" xlink:href="#ArialMT-74"/><use x="138.965" xlink:href="#ArialMT-68"/><use x="194.58" xlink:href="#ArialMT-65"/><use x="250.195" xlink:href="#ArialMT-20"/><use x="277.979" xlink:href="#ArialMT-75"/><use x="333.594" xlink:href="#ArialMT-6e"/><use x="389.209" xlink:href="#ArialMT-61"/><use x="444.824" xlink:href="#ArialMT-73"/><use x="494.824" xlink:href="#ArialMT-73"/><use x="544.824" xlink:href="#ArialMT-69"/><use x="567.041" xlink:href="#ArialMT-73"/><use x="617.041" xlink:href="#ArialMT-74"/><use x="644.824" xlink:href="#ArialMT-65"/><use x="700.439" xlink:href="#ArialMT-64"/><use x="756.055" xlink:href="#ArialMT-20"/><use x="783.838" xlink:href="#ArialMT-72"/><use x="817.139" xlink:href="#ArialMT-65"/><use x="872.754" xlink:href="#ArialMT-61"/><use x="928.369" xlink:href="#ArialMT-64"/><use x="983.984" xlink:href="#ArialMT-2c"/></g><defs><path d="M6.203-19.969l-.984 8.25q2.89-.781 5.031-.781 2.938 0 4.688.984 1.765.97 2.89 2.72.828 1.327 2.688 6.546.234.734.78 2.156L1.61 51.86h9.47l10.796-30.03q2.094-5.72 3.766-12.017 1.515 6.063 3.609 11.813l11.078 30.234h8.797L29.391-.875q-3.172-8.547-4.922-11.766-2.344-4.359-5.375-6.375-3.032-2.03-7.235-2.03-2.53 0-5.656 1.077z" id="ArialMT-79"/><path d="M8.688 0v45.016H.921v6.843h7.766v5.516q0 5.219.937 7.766 1.266 3.421 4.453 5.53 3.203 2.126 8.969 2.126 3.719 0 8.203-.875l-1.313-7.656q-2.734.484-5.187.484-4 0-5.656-1.719-1.657-1.703-1.657-6.39v-4.782h10.11v-6.843h-10.11V0z" id="ArialMT-66"/></defs><g transform="matrix(.12 0 0 -.12 218.678 334.755)" fill="#465a75"><use xlink:href="#ArialMT-74"/><use x="27.783" xlink:href="#ArialMT-68"/><use x="83.398" xlink:href="#ArialMT-65"/><use x="139.014" xlink:href="#ArialMT-20"/><use x="166.719" xlink:href="#ArialMT-41"/><use x="233.418" xlink:href="#ArialMT-49"/><use x="261.201" xlink:href="#ArialMT-20"/><use x="288.984" xlink:href="#ArialMT-73"/><use x="338.984" xlink:href="#ArialMT-79"/><use x="388.984" xlink:href="#ArialMT-73"/><use x="438.984" xlink:href="#ArialMT-74"/><use x="466.768" xlink:href="#ArialMT-65"/><use x="522.383" xlink:href="#ArialMT-6d"/><use x="605.684" xlink:href="#ArialMT-20"/><use x="633.467" xlink:href="#ArialMT-6f"/><use x="689.082" xlink:href="#ArialMT-75"/><use x="744.697" xlink:href="#ArialMT-74"/><use x="772.48" xlink:href="#ArialMT-70"/><use x="828.096" xlink:href="#ArialMT-65"/><use x="883.711" xlink:href="#ArialMT-72"/><use x="917.012" xlink:href="#ArialMT-66"/><use x="944.795" xlink:href="#ArialMT-6f"/><use x="1000.41" xlink:href="#ArialMT-72"/><use x="1033.711" xlink:href="#ArialMT-6d"/><use x="1117.012" xlink:href="#ArialMT-73"/></g><defs><path d="M6.39 0v71.578h8.797V0z" id="ArialMT-6c"/></defs><g transform="matrix(.12 0 0 -.12 218.678 347.587)" fill="#465a75"><use xlink:href="#ArialMT-74"/><use x="27.783" xlink:href="#ArialMT-68"/><use x="83.398" xlink:href="#ArialMT-65"/><use x="139.014" xlink:href="#ArialMT-20"/><use x="166.797" xlink:href="#ArialMT-70"/><use x="222.412" xlink:href="#ArialMT-61"/><use x="278.027" xlink:href="#ArialMT-6e"/><use x="333.643" xlink:href="#ArialMT-65"/><use x="389.258" xlink:href="#ArialMT-6c"/><use x="411.475" xlink:href="#ArialMT-2e"/></g></g><g id="patch_10" stroke="#000" stroke-linecap="round"><path d="M558.937 260.104q36.216-44.475-1.02-104.601" fill="none"/><path d="M558.404 160.847l-.487-5.344 4.568 2.817-4.081 2.527z" fill="#1f77b4"/></g><g id="text_13" fill="#465a75"><g transform="matrix(.12 0 0 -.12 464.198 272.088)"><use xlink:href="#ArialMT-49"/><use x="27.783" xlink:href="#ArialMT-6e"/><use x="83.398" xlink:href="#ArialMT-20"/><use x="111.182" xlink:href="#ArialMT-74"/><use x="138.965" xlink:href="#ArialMT-68"/><use x="194.58" xlink:href="#ArialMT-65"/><use x="250.195" xlink:href="#ArialMT-20"/><use x="277.9" xlink:href="#ArialMT-41"/><use x="344.6" xlink:href="#ArialMT-49"/><use x="372.383" xlink:href="#ArialMT-2d"/><use x="405.684" xlink:href="#ArialMT-61"/><use x="461.299" xlink:href="#ArialMT-73"/><use x="511.299" xlink:href="#ArialMT-73"/><use x="561.299" xlink:href="#ArialMT-69"/><use x="583.516" xlink:href="#ArialMT-73"/><use x="633.516" xlink:href="#ArialMT-74"/><use x="661.299" xlink:href="#ArialMT-65"/><use x="716.914" xlink:href="#ArialMT-64"/><use x="772.529" xlink:href="#ArialMT-20"/><use x="800.313" xlink:href="#ArialMT-72"/><use x="833.613" xlink:href="#ArialMT-65"/><use x="889.229" xlink:href="#ArialMT-61"/><use x="944.844" xlink:href="#ArialMT-64"/><use x="1000.459" xlink:href="#ArialMT-2c"/></g><g transform="matrix(.12 0 0 -.12 464.198 284.956)"><use xlink:href="#ArialMT-74"/><use x="27.783" xlink:href="#ArialMT-68"/><use x="83.398" xlink:href="#ArialMT-65"/><use x="139.014" xlink:href="#ArialMT-20"/><use x="166.797" xlink:href="#ArialMT-70"/><use x="222.412" xlink:href="#ArialMT-65"/><use x="278.027" xlink:href="#ArialMT-72"/><use x="311.328" xlink:href="#ArialMT-66"/><use x="339.111" xlink:href="#ArialMT-6f"/><use x="394.727" xlink:href="#ArialMT-72"/><use x="428.027" xlink:href="#ArialMT-6d"/><use x="511.328" xlink:href="#ArialMT-61"/><use x="566.943" xlink:href="#ArialMT-6e"/><use x="622.559" xlink:href="#ArialMT-63"/><use x="672.559" xlink:href="#ArialMT-65"/><use x="728.174" xlink:href="#ArialMT-20"/><use x="755.957" xlink:href="#ArialMT-6f"/><use x="811.572" xlink:href="#ArialMT-66"/></g><g transform="matrix(.12 0 0 -.12 464.198 297.648)"><use xlink:href="#ArialMT-74"/><use x="27.783" xlink:href="#ArialMT-68"/><use x="83.398" xlink:href="#ArialMT-65"/><use x="139.014" xlink:href="#ArialMT-20"/><use x="166.797" xlink:href="#ArialMT-70"/><use x="222.412" xlink:href="#ArialMT-61"/><use x="278.027" xlink:href="#ArialMT-6e"/><use x="333.643" xlink:href="#ArialMT-65"/><use x="389.258" xlink:href="#ArialMT-6c"/><use x="411.475" xlink:href="#ArialMT-20"/><use x="439.258" xlink:href="#ArialMT-69"/><use x="461.475" xlink:href="#ArialMT-6e"/><use x="517.09" xlink:href="#ArialMT-63"/><use x="567.09" xlink:href="#ArialMT-72"/><use x="600.391" xlink:href="#ArialMT-65"/><use x="656.006" xlink:href="#ArialMT-61"/><use x="711.621" xlink:href="#ArialMT-73"/><use x="761.621" xlink:href="#ArialMT-65"/><use x="817.236" xlink:href="#ArialMT-73"/></g><g transform="matrix(.12 0 0 -.12 464.198 310.516)"><use xlink:href="#ArialMT-73"/><use x="50" xlink:href="#ArialMT-69"/><use x="72.217" xlink:href="#ArialMT-67"/><use x="127.832" xlink:href="#ArialMT-6e"/><use x="183.447" xlink:href="#ArialMT-69"/><use x="205.664" xlink:href="#ArialMT-66"/><use x="233.447" xlink:href="#ArialMT-69"/><use x="255.664" xlink:href="#ArialMT-63"/><use x="305.664" xlink:href="#ArialMT-61"/><use x="361.279" xlink:href="#ArialMT-6e"/><use x="416.895" xlink:href="#ArialMT-74"/><use x="444.678" xlink:href="#ArialMT-6c"/><use x="466.895" xlink:href="#ArialMT-79"/><use x="516.785" xlink:href="#ArialMT-2e"/></g></g><g id="text_14"><defs><path d="M16.156 0L.296 51.86h9.079l8.25-29.938 3.078-11.125q.203.828 2.688 10.687l8.25 30.375h9.03l7.767-30.078 2.593-9.922L54 21.875l8.89 29.984h8.547L55.22 0h-9.125l-8.25 31.063-2 8.828L25.344 0z" id="ArialMT-77"/></defs><g transform="matrix(.16 0 0 -.16 235.168 11.64)" fill="#262626"><use xlink:href="#ArialMT-41"/><use x="66.699" xlink:href="#ArialMT-67"/><use x="122.314" xlink:href="#ArialMT-72"/><use x="155.615" xlink:href="#ArialMT-65"/><use x="211.23" xlink:href="#ArialMT-65"/><use x="266.846" xlink:href="#ArialMT-6d"/><use x="350.146" xlink:href="#ArialMT-65"/><use x="405.762" xlink:href="#ArialMT-6e"/><use x="461.377" xlink:href="#ArialMT-74"/><use x="489.16" xlink:href="#ArialMT-20"/><use x="516.943" xlink:href="#ArialMT-77"/><use x="589.16" xlink:href="#ArialMT-69"/><use x="611.377" xlink:href="#ArialMT-74"/><use x="639.16" xlink:href="#ArialMT-68"/><use x="694.775" xlink:href="#ArialMT-20"/><use x="722.559" xlink:href="#ArialMT-72"/><use x="755.859" xlink:href="#ArialMT-65"/><use x="811.475" xlink:href="#ArialMT-73"/><use x="861.475" xlink:href="#ArialMT-70"/><use x="917.09" xlink:href="#ArialMT-65"/><use x="972.705" xlink:href="#ArialMT-63"/><use x="1022.705" xlink:href="#ArialMT-74"/><use x="1050.488" xlink:href="#ArialMT-20"/><use x="1078.271" xlink:href="#ArialMT-74"/><use x="1106.055" xlink:href="#ArialMT-6f"/><use x="1161.67" xlink:href="#ArialMT-20"/><use x="1189.453" xlink:href="#ArialMT-74"/><use x="1217.236" xlink:href="#ArialMT-68"/><use x="1272.852" xlink:href="#ArialMT-65"/></g><defs><path d="M21 0L1.266 51.86h9.28l11.142-31.063Q23.483 15.766 25 10.359q1.172 4.094 3.266 9.86l11.53 31.64h9.032L29.203 0z" id="ArialMT-76"/></defs><g transform="matrix(.16 0 0 -.16 225.386 28.985)" fill="#262626"><use xlink:href="#ArialMT-20"/><use x="27.783" xlink:href="#ArialMT-72"/><use x="61.084" xlink:href="#ArialMT-65"/><use x="116.699" xlink:href="#ArialMT-66"/><use x="144.482" xlink:href="#ArialMT-65"/><use x="200.098" xlink:href="#ArialMT-72"/><use x="233.398" xlink:href="#ArialMT-65"/><use x="289.014" xlink:href="#ArialMT-6e"/><use x="344.629" xlink:href="#ArialMT-63"/><use x="394.629" xlink:href="#ArialMT-65"/><use x="450.244" xlink:href="#ArialMT-20"/><use x="478.027" xlink:href="#ArialMT-73"/><use x="528.027" xlink:href="#ArialMT-74"/><use x="555.811" xlink:href="#ArialMT-61"/><use x="611.426" xlink:href="#ArialMT-6e"/><use x="667.041" xlink:href="#ArialMT-64"/><use x="722.656" xlink:href="#ArialMT-61"/><use x="778.271" xlink:href="#ArialMT-72"/><use x="811.572" xlink:href="#ArialMT-64"/><use x="867.188" xlink:href="#ArialMT-20"/><use x="894.971" xlink:href="#ArialMT-28"/><use x="928.271" xlink:href="#ArialMT-67"/><use x="983.887" xlink:href="#ArialMT-72"/><use x="1017.188" xlink:href="#ArialMT-6f"/><use x="1072.803" xlink:href="#ArialMT-75"/><use x="1128.418" xlink:href="#ArialMT-70"/><use x="1184.033" xlink:href="#ArialMT-20"/><use x="1211.816" xlink:href="#ArialMT-6c"/><use x="1234.033" xlink:href="#ArialMT-65"/><use x="1289.648" xlink:href="#ArialMT-76"/><use x="1339.648" xlink:href="#ArialMT-65"/><use x="1395.264" xlink:href="#ArialMT-6c"/><use x="1417.48" xlink:href="#ArialMT-29"/></g></g><g id="legend_1"><path d="M468.15 434.436h28" fill="none" stroke="#465a75" stroke-linecap="round" stroke-width="2" id="line2d_25"/><g id="text_15"><defs><path d="M7.422 0v71.578h14.265l16.938-50.672q2.344-7.093 3.422-10.61 1.219 3.907 3.797 11.485l17.14 49.797h12.75V0H66.61v59.906L45.797 0H37.25L16.547 60.938V0z" id="ArialMT-4d"/></defs><g transform="matrix(.14 0 0 -.14 507.35 430.592)" fill="#262626"><use xlink:href="#ArialMT-4d"/><use x="83.301" xlink:href="#ArialMT-65"/><use x="138.916" xlink:href="#ArialMT-64"/><use x="194.531" xlink:href="#ArialMT-69"/><use x="216.748" xlink:href="#ArialMT-61"/><use x="272.363" xlink:href="#ArialMT-6e"/><use x="327.979" xlink:href="#ArialMT-20"/><use x="355.762" xlink:href="#ArialMT-70"/><use x="411.377" xlink:href="#ArialMT-65"/><use x="466.992" xlink:href="#ArialMT-72"/><use x="500.293" xlink:href="#ArialMT-66"/><use x="528.076" xlink:href="#ArialMT-6f"/><use x="583.691" xlink:href="#ArialMT-72"/><use x="616.992" xlink:href="#ArialMT-6d"/><use x="700.293" xlink:href="#ArialMT-61"/><use x="755.908" xlink:href="#ArialMT-6e"/><use x="811.523" xlink:href="#ArialMT-63"/><use x="861.523" xlink:href="#ArialMT-65"/></g><g transform="matrix(.14 0 0 -.14 507.35 445.4)" fill="#262626"><use xlink:href="#ArialMT-41"/><use x="66.699" xlink:href="#ArialMT-73"/><use x="116.699" xlink:href="#ArialMT-73"/><use x="166.699" xlink:href="#ArialMT-69"/><use x="188.916" xlink:href="#ArialMT-73"/><use x="238.916" xlink:href="#ArialMT-74"/><use x="266.699" xlink:href="#ArialMT-65"/><use x="322.314" xlink:href="#ArialMT-64"/><use x="377.93" xlink:href="#ArialMT-20"/><use x="405.713" xlink:href="#ArialMT-72"/><use x="439.014" xlink:href="#ArialMT-65"/><use x="494.629" xlink:href="#ArialMT-61"/><use x="550.244" xlink:href="#ArialMT-64"/></g></g><path d="M468.15 469.132h28" fill="none" stroke="orange" stroke-dasharray="7.4,3.2" stroke-width="2" id="line2d_27"/><g id="text_16"><defs><path d="M7.719 0v71.578h27q7.125 0 10.89-.672 5.266-.89 8.828-3.36 3.579-2.452 5.75-6.905 2.172-4.438 2.172-9.766 0-9.125-5.812-15.453-5.813-6.313-21-6.313h-18.36V0zm9.468 37.547h18.5q9.188 0 13.047 3.422 3.86 3.422 3.86 9.625 0 4.484-2.282 7.672-2.265 3.203-5.968 4.234-2.407.64-8.844.64H17.187z" id="ArialMT-50"/></defs><g transform="matrix(.14 0 0 -.14 507.35 464.91)" fill="#262626"><use xlink:href="#ArialMT-50"/><use x="66.699" xlink:href="#ArialMT-65"/><use x="122.314" xlink:href="#ArialMT-72"/><use x="155.615" xlink:href="#ArialMT-66"/><use x="183.398" xlink:href="#ArialMT-6f"/><use x="239.014" xlink:href="#ArialMT-72"/><use x="272.314" xlink:href="#ArialMT-6d"/><use x="355.615" xlink:href="#ArialMT-61"/><use x="411.23" xlink:href="#ArialMT-6e"/><use x="466.846" xlink:href="#ArialMT-63"/><use x="516.846" xlink:href="#ArialMT-65"/><use x="572.461" xlink:href="#ArialMT-20"/><use x="600.244" xlink:href="#ArialMT-6f"/><use x="655.859" xlink:href="#ArialMT-66"/><use x="683.643" xlink:href="#ArialMT-20"/></g><g transform="matrix(.14 0 0 -.14 507.35 479.717)" fill="#262626"><use xlink:href="#ArialMT-41"/><use x="66.699" xlink:href="#ArialMT-49"/><use x="94.482" xlink:href="#ArialMT-20"/><use x="122.266" xlink:href="#ArialMT-73"/><use x="172.266" xlink:href="#ArialMT-79"/><use x="222.266" xlink:href="#ArialMT-73"/><use x="272.266" xlink:href="#ArialMT-74"/><use x="300.049" xlink:href="#ArialMT-65"/><use x="355.664" xlink:href="#ArialMT-6d"/></g></g></g></g></g><defs><clipPath id="pe76f1316ca"><path d="M34.538 51.907h613.8v443.52h-613.8z"/></clipPath></defs></svg>